<?xml version="1.0" standalone="no"?><!DOCTYPE svg PUBLIC "-//W3C//DTD SVG 1.1//EN" "http://www.w3.org/Graphics/SVG/1.1/DTD/svg11.dtd"><svg t="1635737444403" class="icon" viewBox="0 0 1024 1024" version="1.1" xmlns="http://www.w3.org/2000/svg" p-id="2571" width="200" height="200" xmlns:xlink="http://www.w3.org/1999/xlink"><defs><style type="text/css"></style></defs><path d="M512 512m-414 0a414 414 0 1 0 828 0 414 414 0 1 0-828 0Z" fill="#1296db" p-id="2572" data-spm-anchor-id="a313x.7781069.0.i1" class="selected"></path><path d="M606.968 353.844l164.438-210.89-76.42 280.92-63.072-9.02z" fill="#A4CFF2" p-id="2573"></path><path d="M694.996 435.876c-0.564 0-1.134-0.042-1.708-0.124l-63.072-9.02a12 12 0 0 1-9.408-7.338l-24.946-61.01a12.006 12.006 0 0 1 1.644-11.92l164.438-210.89a11.998 11.998 0 0 1 21.042 10.528l-76.42 280.92a12.006 12.006 0 0 1-11.57 8.854z m-54.576-31.928l45.77 6.544L744.152 197.42l-123.446 158.318 19.714 48.21z" fill="#4C4372" p-id="2574"></path><path d="M606.956 365.846a12.002 12.002 0 0 1-1.918-23.846l112.04-18.274a12.008 12.008 0 0 1 13.776 9.912 12.002 12.002 0 0 1-9.912 13.776l-112.04 18.274a12.43 12.43 0 0 1-1.946 0.158zM671.792 282.706a12.004 12.004 0 0 1-3.218-23.564l70.182-19.574a11.998 11.998 0 0 1 14.784 8.334 12 12 0 0 1-8.334 14.784l-70.182 19.574c-1.08 0.3-2.166 0.446-3.232 0.446z" fill="#4C4372" p-id="2575"></path><path d="M529.812 343.158l-37.78-82.244C296.94 371.596 171.522 573.89 159.14 797.848l-1.276 23.072h93.66l278.288-477.762z" fill="#1296db" p-id="2576" data-spm-anchor-id="a313x.7781069.0.i0" class="selected"></path><path d="M251.524 832.92h-93.66a12.006 12.006 0 0 1-11.982-12.662l1.276-23.072c6.188-111.886 40.668-221.368 99.712-316.606 59.046-95.238 141.774-174.806 239.238-230.104a11.998 11.998 0 0 1 16.826 5.428l37.782 82.244a11.996 11.996 0 0 1-0.536 11.048L261.892 826.958a11.998 11.998 0 0 1-10.368 5.962z m-80.98-24h74.08l271.68-466.416-29.666-64.58c-89.066 52.966-164.736 127.18-219.372 215.302-56.936 91.832-90.182 197.398-96.146 305.284l-0.576 10.41z" fill="#4C4372" p-id="2577"></path><path d="M657.426 393.292c-42.856-55.656-122.608-66.692-178.978-24.43a128.05 128.05 0 0 0-37.486 44.588l-0.018-0.02a636.408 636.408 0 0 0-189.422 407.49l-4.476 60.126H565.14l-2.076-7.414a347.588 347.588 0 0 1 43.852-283.982l-0.014-0.016 0.018-0.008-0.004 0.024 215.972 66.074 43.248-92.502-208.71-169.93z" fill="#FFFFFF" p-id="2578"></path><path d="M606.916 589.648l-0.014-0.016 0.018-0.008-0.004 0.024 31.116 9.52c-36.184-25.414-99.602 0-99.602 0-81.574 105.946-56.042 281.878-56.042 281.878h82.75l-2.076-7.414a347.616 347.616 0 0 1 43.854-283.984z" fill="#D3E6F8" p-id="2579"></path><path d="M565.14 893.046H247.048a11.996 11.996 0 0 1-11.966-12.89l4.474-60.126a647.998 647.998 0 0 1 191.668-413.87c9.734-18.508 23.194-34.28 40.026-46.9 29.788-22.332 66.492-31.848 103.384-26.792 36.372 4.984 68.782 23.566 91.424 52.376l207.654 169.07a11.994 11.994 0 0 1 3.294 14.386l-43.248 92.502a12 12 0 0 1-14.38 6.392l-207.234-63.4a335.554 335.554 0 0 0-37.522 266.6l2.074 7.418a12 12 0 0 1-11.556 15.234z m-305.166-24h289.442a359.566 359.566 0 0 1 47.148-285.49 11.998 11.998 0 0 1 14.576-5.166L816.432 641.2l34.872-74.582-201.454-164.02a12.088 12.088 0 0 1-1.932-1.984c-38.712-50.276-111.508-60.21-162.27-22.15-14.426 10.816-25.862 24.416-33.984 40.42a12.006 12.006 0 0 1-2.884 3.674 624.034 624.034 0 0 0-185.29 399.254l-3.516 47.234z" fill="#4C4372" p-id="2580"></path><path d="M555.372 612.486c-43.118 0-84.944-19.966-112.268-56.408a12.002 12.002 0 0 1 2.402-16.8 12.008 12.008 0 0 1 16.8 2.402c32.594 43.474 90.084 58.684 139.812 36.992 6.078-2.652 13.146 0.124 15.796 6.2s-0.124 13.146-6.2 15.796c-18.278 7.976-37.438 11.818-56.342 11.818z" fill="#4C4372" p-id="2581"></path><path d="M509.57 404.38l-85.238-99.15c-34.314 29.5-38.216 81.23-8.718 115.544l31.824 37.018 62.132-53.412z" fill="#FFFFFF" p-id="2582"></path><path d="M447.444 469.792a11.972 11.972 0 0 1-9.106-4.178l-31.824-37.018c-33.764-39.278-29.282-98.702 9.996-132.466a11.998 11.998 0 0 1 16.922 1.278l85.238 99.148a12 12 0 1 1-18.2 15.644l-76.744-89.268c-21.202 25.752-21.484 63.878 0.986 90.02l31.824 37.018a12 12 0 0 1-9.092 19.822z" fill="#4C4372" p-id="2583"></path></svg>