<?xml version="1.0" standalone="no"?><!DOCTYPE svg PUBLIC "-//W3C//DTD SVG 1.1//EN" "http://www.w3.org/Graphics/SVG/1.1/DTD/svg11.dtd"><svg t="1606375027989" class="icon" viewBox="0 0 1024 1024" version="1.1" xmlns="http://www.w3.org/2000/svg" p-id="1019" xmlns:xlink="http://www.w3.org/1999/xlink" width="200" height="200"><defs><style type="text/css"></style></defs><path d="M853.333333 256v512h-213.333333V256h213.333333m0-85.333333h-213.333333a85.333333 85.333333 0 0 0-85.333333 85.333333v512a85.333333 85.333333 0 0 0 85.333333 85.333333h213.333333a85.333333 85.333333 0 0 0 85.333334-85.333333V256a85.333333 85.333333 0 0 0-85.333334-85.333333zM384 256v512H170.666667V256h213.333333m0-85.333333H170.666667a85.333333 85.333333 0 0 0-85.333334 85.333333v512a85.333333 85.333333 0 0 0 85.333334 85.333333h213.333333a85.333333 85.333333 0 0 0 85.333333-85.333333V256a85.333333 85.333333 0 0 0-85.333333-85.333333z" fill="#555555" p-id="1020"></path></svg>